<?xml version="1.0" standalone="no"?>
<!DOCTYPE svg PUBLIC "-//W3C//DTD SVG 20010904//EN"
 "http://www.w3.org/TR/2001/REC-SVG-20010904/DTD/svg10.dtd">
<svg version="1.0" xmlns="http://www.w3.org/2000/svg"
 width="256.000000pt" height="256.000000pt" viewBox="0 0 256.000000 256.000000"
 preserveAspectRatio="xMidYMid meet">
<metadata>
Created by potrace 1.16, written by Peter Selinger 2001-2019
</metadata>
<g transform="translate(0.000000,256.000000) scale(0.100000,-0.100000)"
fill="#000000" stroke="none">
<path d="M1839 2536 c-69 -28 -105 -53 -152 -105 -43 -48 -73 -103 -82 -154
l-7 -37 185 0 c102 0 197 -4 211 -10 15 -5 31 -21 38 -34 14 -32 12 -35 -141
-205 -67 -74 -121 -138 -121 -142 0 -19 110 -53 186 -57 227 -12 405 153 407
378 1 169 -94 312 -248 369 -79 30 -200 29 -276 -3z"/>
<path d="M202 2110 c2 -5 39 -50 83 -100 l79 -90 643 -1 c354 -1 647 -2 652
-3 9 -1 181 187 181 198 0 3 -369 6 -821 6 -523 0 -819 -4 -817 -10z"/>
<path d="M485 1790 c4 -6 110 -126 236 -266 l229 -256 0 -569 0 -569 -190 0
-190 0 0 -65 0 -65 450 0 450 0 0 65 0 65 -190 0 -190 0 0 571 0 571 212 236
c116 131 223 249 237 265 l25 27 -543 0 c-376 0 -540 -3 -536 -10z"/>
</g>
</svg>
